<mxfile host="app.diagrams.net" modified="2023-05-10T20:38:17.403Z" agent="Mozilla/5.0 (Windows NT 10.0; Win64; x64) AppleWebKit/537.36 (KHTML, like Gecko) Chrome/113.0.0.0 Safari/537.36" etag="zdi3gCHbI0oK16D3mUG1" version="21.2.9" type="device">
  <diagram name="Seite-1" id="T3qOwCYRP5SabC_Y7l2l">
    <mxGraphModel dx="991" dy="476" grid="1" gridSize="10" guides="1" tooltips="1" connect="1" arrows="1" fold="1" page="1" pageScale="1" pageWidth="827" pageHeight="1169" math="0" shadow="0">
      <root>
        <mxCell id="0" />
        <mxCell id="1" parent="0" />
        <mxCell id="LrtDx9Zr3HTaaep1rT7l-30" value="" style="group" parent="1" vertex="1" connectable="0">
          <mxGeometry x="240" y="340" width="290" height="130" as="geometry" />
        </mxCell>
        <mxCell id="LrtDx9Zr3HTaaep1rT7l-2" value="&lt;p style=&quot;margin:0px;margin-top:4px;text-align:center;&quot;&gt;&lt;i&gt;&amp;lt;&amp;lt;Interface&amp;gt;&amp;gt;&lt;/i&gt;&lt;br&gt;&lt;b&gt;Queue&lt;/b&gt;&lt;/p&gt;&lt;hr size=&quot;1&quot;&gt;&lt;p style=&quot;border-color: var(--border-color); margin: 0px 0px 0px 4px;&quot;&gt;+ get_size()&lt;/p&gt;&amp;nbsp;+ is_empty()&lt;span style=&quot;background-color: initial;&quot;&gt;&amp;nbsp;&lt;/span&gt;&lt;br&gt;&lt;p style=&quot;border-color: var(--border-color); margin: 0px 0px 0px 4px;&quot;&gt;+ push(T)&lt;/p&gt;&lt;p style=&quot;border-color: var(--border-color); margin: 0px 0px 0px 4px;&quot;&gt;+ pop()&lt;/p&gt;" style="verticalAlign=top;align=left;overflow=fill;fontSize=12;fontFamily=Helvetica;html=1;whiteSpace=wrap;" parent="LrtDx9Zr3HTaaep1rT7l-30" vertex="1">
          <mxGeometry y="10" width="280" height="120" as="geometry" />
        </mxCell>
        <mxCell id="LrtDx9Zr3HTaaep1rT7l-3" value="T" style="fontStyle=0;dashed=1;html=1;whiteSpace=wrap;" parent="LrtDx9Zr3HTaaep1rT7l-30" vertex="1">
          <mxGeometry x="260" width="30" height="30" as="geometry" />
        </mxCell>
        <mxCell id="LrtDx9Zr3HTaaep1rT7l-32" value="" style="group" parent="1" vertex="1" connectable="0">
          <mxGeometry x="240" y="670" width="290" height="130" as="geometry" />
        </mxCell>
        <mxCell id="LrtDx9Zr3HTaaep1rT7l-11" value="&lt;p style=&quot;margin:0px;margin-top:4px;text-align:center;&quot;&gt;&lt;i&gt;&amp;lt;&amp;lt;Interface&amp;gt;&amp;gt;&lt;/i&gt;&lt;br&gt;&lt;b&gt;PriorityQueue&lt;/b&gt;&lt;/p&gt;&lt;hr size=&quot;1&quot;&gt;&lt;p style=&quot;margin:0px;margin-left:4px;&quot;&gt;+ get_size()&amp;nbsp;&lt;/p&gt;&lt;p style=&quot;margin:0px;margin-left:4px;&quot;&gt;+ is_empty()&lt;/p&gt;&lt;p style=&quot;margin:0px;margin-left:4px;&quot;&gt;&lt;span style=&quot;background-color: initial;&quot;&gt;+ top() : Iterator&lt;/span&gt;&lt;/p&gt;&lt;p style=&quot;margin:0px;margin-left:4px;&quot;&gt;+ push(T)&lt;/p&gt;&lt;p style=&quot;margin:0px;margin-left:4px;&quot;&gt;+ pop()&lt;/p&gt;" style="verticalAlign=top;align=left;overflow=fill;fontSize=12;fontFamily=Helvetica;html=1;whiteSpace=wrap;" parent="LrtDx9Zr3HTaaep1rT7l-32" vertex="1">
          <mxGeometry y="10" width="280" height="120" as="geometry" />
        </mxCell>
        <mxCell id="LrtDx9Zr3HTaaep1rT7l-12" value="T" style="fontStyle=0;dashed=1;html=1;whiteSpace=wrap;" parent="LrtDx9Zr3HTaaep1rT7l-32" vertex="1">
          <mxGeometry x="260" width="30" height="30" as="geometry" />
        </mxCell>
        <mxCell id="LrtDx9Zr3HTaaep1rT7l-33" value="" style="group" parent="1" vertex="1" connectable="0">
          <mxGeometry x="560" y="340" width="290" height="130" as="geometry" />
        </mxCell>
        <mxCell id="LrtDx9Zr3HTaaep1rT7l-8" value="&lt;p style=&quot;margin:0px;margin-top:4px;text-align:center;&quot;&gt;&lt;i&gt;&amp;lt;&amp;lt;Interface&amp;gt;&amp;gt;&lt;/i&gt;&lt;br&gt;&lt;b&gt;Stack&lt;/b&gt;&lt;/p&gt;&lt;hr size=&quot;1&quot;&gt;&lt;p style=&quot;margin:0px;margin-left:4px;&quot;&gt;+ get_size()&amp;nbsp;&lt;/p&gt;&lt;p style=&quot;margin:0px;margin-left:4px;&quot;&gt;+ is_empty()&lt;br&gt;&lt;/p&gt;&lt;p style=&quot;margin:0px;margin-left:4px;&quot;&gt;+ push(T)&lt;/p&gt;&lt;p style=&quot;margin:0px;margin-left:4px;&quot;&gt;+ pop()&lt;/p&gt;" style="verticalAlign=top;align=left;overflow=fill;fontSize=12;fontFamily=Helvetica;html=1;whiteSpace=wrap;" parent="LrtDx9Zr3HTaaep1rT7l-33" vertex="1">
          <mxGeometry y="10" width="280" height="120" as="geometry" />
        </mxCell>
        <mxCell id="LrtDx9Zr3HTaaep1rT7l-9" value="T" style="fontStyle=0;dashed=1;html=1;whiteSpace=wrap;" parent="LrtDx9Zr3HTaaep1rT7l-33" vertex="1">
          <mxGeometry x="260" width="30" height="30" as="geometry" />
        </mxCell>
        <mxCell id="3Ro4mRhuLF2zyKNi235O-5" value="&lt;p style=&quot;margin:0px;margin-top:4px;text-align:center;&quot;&gt;&lt;i&gt;&amp;lt;&amp;lt;Interface&amp;gt;&amp;gt;&lt;/i&gt;&lt;br&gt;&lt;b&gt;OrderedSet&lt;/b&gt;&lt;/p&gt;&lt;hr size=&quot;1&quot;&gt;&lt;p style=&quot;margin:0px;margin-left:4px;&quot;&gt;+ get_size()&amp;nbsp;&lt;/p&gt;&lt;p style=&quot;margin:0px;margin-left:4px;&quot;&gt;+ is_empty()&lt;br&gt;&lt;/p&gt;&lt;p style=&quot;margin:0px;margin-left:4px;&quot;&gt;+ get_first() : Iterator&lt;/p&gt;&lt;p style=&quot;margin:0px;margin-left:4px;&quot;&gt;+ insert(T)&lt;/p&gt;&lt;p style=&quot;margin:0px;margin-left:4px;&quot;&gt;+ contains(T)&lt;/p&gt;&lt;p style=&quot;margin:0px;margin-left:4px;&quot;&gt;+ remove(T)&lt;/p&gt;" style="verticalAlign=top;align=left;overflow=fill;fontSize=12;fontFamily=Helvetica;html=1;whiteSpace=wrap;" parent="1" vertex="1">
          <mxGeometry x="560" y="509.9984615384616" width="280" height="138.46153846153845" as="geometry" />
        </mxCell>
        <mxCell id="LrtDx9Zr3HTaaep1rT7l-21" value="&lt;p style=&quot;margin:0px;margin-top:4px;text-align:center;&quot;&gt;&lt;i&gt;&amp;lt;&amp;lt;Interface&amp;gt;&amp;gt;&lt;/i&gt;&lt;br&gt;&lt;b&gt;DoublyLinkedList&lt;/b&gt;&lt;/p&gt;&lt;hr size=&quot;1&quot;&gt;&amp;nbsp;+ get_size()&amp;nbsp;&lt;br&gt;&amp;nbsp;+ is_empty()&lt;br&gt;&amp;nbsp;+ get_front() : Iterator&lt;br&gt;&amp;nbsp;+ get_end() : Iterator&lt;br&gt;&amp;nbsp;+ insert_front(T)&lt;br&gt;&lt;div&gt;&amp;nbsp;+ insert_after(predecessor, T)&lt;/div&gt;&lt;div&gt;&amp;nbsp;+ remove(T)&lt;/div&gt;" style="verticalAlign=top;align=left;overflow=fill;fontSize=12;fontFamily=Helvetica;html=1;whiteSpace=wrap;" parent="1" vertex="1">
          <mxGeometry x="560" y="160.00397806883947" width="280" height="147.81602193116058" as="geometry" />
        </mxCell>
        <mxCell id="LrtDx9Zr3HTaaep1rT7l-18" value="&lt;p style=&quot;margin:0px;margin-top:4px;text-align:center;&quot;&gt;&lt;i&gt;&amp;lt;&amp;lt;Interface&amp;gt;&amp;gt;&lt;/i&gt;&lt;br&gt;&lt;b&gt;SinglyLinkedList&lt;/b&gt;&lt;/p&gt;&lt;hr size=&quot;1&quot;&gt;&amp;nbsp;+ get_size&lt;br&gt;&amp;nbsp;+ is_empty()&amp;nbsp;&lt;br&gt;&amp;nbsp;+ get_front() : Iterator&lt;br&gt;&amp;nbsp;+ inset_front(T)&lt;br&gt;&amp;nbsp;+ insert_after(predecessor, T)&lt;b&gt;&lt;br&gt;&lt;/b&gt;&lt;p style=&quot;margin:0px;margin-left:4px;&quot;&gt;+ remove_front()&lt;/p&gt;&lt;p style=&quot;margin:0px;margin-left:4px;&quot;&gt;+ remove_after(predecessor)&lt;/p&gt;" style="verticalAlign=top;align=left;overflow=fill;fontSize=12;fontFamily=Helvetica;html=1;whiteSpace=wrap;container=0;" parent="1" vertex="1">
          <mxGeometry x="240" y="159.99999999999994" width="280" height="146.88" as="geometry" />
        </mxCell>
        <mxCell id="3Ro4mRhuLF2zyKNi235O-2" value="&lt;p style=&quot;margin:0px;margin-top:4px;text-align:center;&quot;&gt;&lt;i&gt;&amp;lt;&amp;lt;Interface&amp;gt;&amp;gt;&lt;/i&gt;&lt;br&gt;&lt;b&gt;UnorderedSet&lt;/b&gt;&lt;/p&gt;&lt;hr size=&quot;1&quot;&gt;&lt;p style=&quot;margin:0px;margin-left:4px;&quot;&gt;+ get_size()&amp;nbsp;&lt;/p&gt;&lt;p style=&quot;margin:0px;margin-left:4px;&quot;&gt;+ is_empty()&lt;br&gt;&lt;/p&gt;&lt;p style=&quot;margin:0px;margin-left:4px;&quot;&gt;+ insert(T)&lt;/p&gt;&lt;p style=&quot;margin:0px;margin-left:4px;&quot;&gt;+ contains(T)&lt;/p&gt;&lt;p style=&quot;margin:0px;margin-left:4px;&quot;&gt;+ remove(T)&lt;/p&gt;" style="verticalAlign=top;align=left;overflow=fill;fontSize=12;fontFamily=Helvetica;html=1;whiteSpace=wrap;" parent="1" vertex="1">
          <mxGeometry x="240" y="510" width="280" height="120" as="geometry" />
        </mxCell>
        <mxCell id="ggEIHunW_M2FRsT6yCjh-1" value="T" style="fontStyle=0;dashed=1;html=1;whiteSpace=wrap;" vertex="1" parent="1">
          <mxGeometry x="820" y="500" width="30" height="30" as="geometry" />
        </mxCell>
        <mxCell id="ggEIHunW_M2FRsT6yCjh-2" value="T" style="fontStyle=0;dashed=1;html=1;whiteSpace=wrap;" vertex="1" parent="1">
          <mxGeometry x="500" y="500" width="30" height="30" as="geometry" />
        </mxCell>
        <mxCell id="ggEIHunW_M2FRsT6yCjh-3" value="T" style="fontStyle=0;dashed=1;html=1;whiteSpace=wrap;" vertex="1" parent="1">
          <mxGeometry x="820" y="150" width="30" height="30" as="geometry" />
        </mxCell>
        <mxCell id="ggEIHunW_M2FRsT6yCjh-4" value="T" style="fontStyle=0;dashed=1;html=1;whiteSpace=wrap;" vertex="1" parent="1">
          <mxGeometry x="500" y="150" width="30" height="30" as="geometry" />
        </mxCell>
      </root>
    </mxGraphModel>
  </diagram>
</mxfile>
